<svg width="51" height="50" viewBox="0 0 51 50" fill="none" xmlns="http://www.w3.org/2000/svg">
<path fill-rule="evenodd" clip-rule="evenodd" d="M19.6216 33.5515C29.0552 33.5515 37.118 35.0421 37.118 40.9968C37.118 46.9515 29.1089 48.4848 19.6216 48.4848C10.1856 48.4848 2.12527 47.0075 2.12527 41.0501C2.12527 35.0928 10.1319 33.5515 19.6216 33.5515Z" stroke="#6DEDC3" stroke-width="2.5" stroke-linecap="round" stroke-linejoin="round"/>
<path fill-rule="evenodd" clip-rule="evenodd" d="M19.6216 25.0528C13.4281 25.0528 8.40576 19.8181 8.40576 13.3595C8.40576 6.9008 13.4281 1.66614 19.6216 1.66614C25.8126 1.66614 30.835 6.9008 30.835 13.3595C30.858 19.7941 25.8714 25.0288 19.7009 25.0528H19.6216Z" stroke="#6DEDC3" stroke-width="2.5" stroke-linecap="round" stroke-linejoin="round"/>
<path d="M37.2448 22.0177C41.3389 21.4177 44.4919 17.7537 44.4996 13.319C44.4996 8.94835 41.4437 5.32169 37.4366 4.63635" stroke="#6DEDC3" stroke-width="2.5" stroke-linecap="round" stroke-linejoin="round"/>
<path d="M42.6464 32.2858C46.6126 32.9018 49.382 34.3525 49.382 37.3392C49.382 39.3952 48.0779 40.7285 45.9707 41.5632" stroke="#6DEDC3" stroke-width="2.5" stroke-linecap="round" stroke-linejoin="round"/>
</svg>
