<svg width="53" height="44" viewBox="0 0 53 44" fill="none" xmlns="http://www.w3.org/2000/svg">
<path d="M40.84 19.0578C44.1879 18.5351 46.7654 15.3458 46.7726 11.4818C46.7726 7.6738 44.2743 4.51646 40.9984 3.91913" stroke="#C06EF3" stroke-width="2.5" stroke-linecap="round" stroke-linejoin="round"/>
<path d="M45.2577 28.001C48.5 28.5397 50.7631 29.801 50.7631 32.401C50.7631 34.1904 49.6976 35.3531 47.9744 36.0837" stroke="#C06EF3" stroke-width="2.5" stroke-linecap="round" stroke-linejoin="round"/>
<path fill-rule="evenodd" clip-rule="evenodd" d="M26.4381 29.1035C18.7248 29.1035 12.137 30.4021 12.137 35.5888C12.137 40.7728 18.684 42.1088 26.4381 42.1088C34.1514 42.1088 40.7368 40.8235 40.7368 35.6341C40.7368 30.4448 34.1922 29.1035 26.4381 29.1035Z" stroke="#C06EF3" stroke-width="2.5" stroke-linecap="round" stroke-linejoin="round"/>
<path fill-rule="evenodd" clip-rule="evenodd" d="M26.4384 21.7012C31.4998 21.7012 35.6036 17.1439 35.6036 11.5172C35.6036 5.89319 31.4998 1.33319 26.4384 1.33319C21.3769 1.33319 17.2731 5.89319 17.2731 11.5172C17.2539 17.1225 21.3265 21.6825 26.3712 21.7012H26.4384Z" stroke="#C06EF3" stroke-width="2.5" stroke-linecap="round" stroke-linejoin="round"/>
<path d="M12.034 19.0578C8.68375 18.5351 6.10864 15.3458 6.10144 11.4818C6.10144 7.6738 8.59975 4.51646 11.8756 3.91913" stroke="#C06EF3" stroke-width="2.5" stroke-linecap="round" stroke-linejoin="round"/>
<path d="M7.61613 28.001C4.37384 28.5397 2.11072 29.801 2.11072 32.401C2.11072 34.1904 3.17628 35.3531 4.89942 36.0837" stroke="#C06EF3" stroke-width="2.5" stroke-linecap="round" stroke-linejoin="round"/>
</svg>
