<svg width="40" height="40" viewBox="0 0 40 40" fill="none" xmlns="http://www.w3.org/2000/svg">
<path d="M28.8399 0H11.1567C5.00603 0 0 5.00603 0 11.1567V28.8399C0 34.994 5.00603 39.9966 11.1567 39.9966H28.8399C34.994 39.9966 40 34.9905 40 28.8399V11.1567C40 5.00603 34.994 0 28.8399 0ZM39.045 28.8399C39.045 34.4734 34.4768 39.0415 28.8433 39.0415H11.1567C5.52319 39.0415 0.955008 34.4734 0.955008 28.8399V11.1567C0.955008 5.52319 5.52319 0.955008 11.1567 0.955008H28.8399C31.2429 0.955008 33.4494 1.79279 35.1939 3.18911C37.1798 5.10602 38.4899 8.31925 37.0074 11.5359C36.8109 12.0772 36.5178 12.5737 36.1283 13.0219C35.3387 13.9321 34.2941 14.3872 33.0012 14.3872C32.2324 14.3872 31.5532 14.17 30.9533 13.739C30.3534 13.3081 30.0534 12.9736 30.0534 12.7323C30.0534 12.684 30.2465 12.4944 30.6292 12.1565C31.0119 11.8221 31.3601 11.4256 31.6739 10.9705C31.9841 10.5154 32.1427 9.97759 32.1427 9.35356C32.0462 8.06068 31.398 7.05396 30.2017 6.33684C29.0019 5.61972 27.5884 5.25771 25.961 5.25771C24.1407 5.25771 22.5478 5.67833 21.1826 6.51612C19.8173 7.3539 19.1346 8.51577 19.1346 10.0017C19.1346 11.3429 19.4208 12.4082 19.9966 13.1977C20.5723 13.9872 21.4342 14.6251 22.5823 15.1008C23.7304 15.5801 25.5508 16.2282 28.0434 17.0419C30.5809 17.8555 32.5702 18.6106 34.0079 19.307C35.2284 19.8966 36.2179 20.6689 37.0074 21.6032C37.0178 21.617 37.0281 21.6273 37.0384 21.6411C38.3761 23.2512 39.045 25.3094 39.045 27.4022V28.8399Z" fill="#8976FD"/>
<path d="M22.3927 37.0074H11.3049C6.66779 37.0074 2.90637 33.2495 2.90637 28.6089V11.3912C2.90637 6.75404 6.66434 2.99261 11.3049 2.99261H24.8164C23.3098 3.14087 21.8514 3.4615 20.4516 3.96486C18.4623 4.68198 16.8453 5.7611 15.6007 7.19879C14.3561 8.63647 13.7321 10.3603 13.7321 12.3738C13.7321 14.5286 14.2596 16.28 15.3146 17.6177C16.3661 18.9588 17.6383 19.9656 19.1243 20.6344C20.6068 21.3067 22.5237 21.9756 24.8715 22.6479C26.7885 23.2236 28.2848 23.727 29.3639 24.1579C30.4396 24.5889 31.3394 25.1888 32.06 25.9542C32.7771 26.7196 33.1356 27.7022 33.1356 28.8985C33.1356 30.6706 32.5013 32.0497 31.2325 33.0288C29.9638 34.0114 28.202 34.501 25.9507 34.501C23.458 34.501 21.5549 34.0804 20.2379 33.2426C18.9209 32.4048 18.2623 31.2671 18.2623 29.8294C18.2623 28.7778 18.5382 27.9607 19.0898 27.385C19.6414 26.8092 19.9172 26.4989 19.9172 26.4506C19.9172 26.2128 19.6173 25.8749 19.0174 25.4439C18.4175 25.013 17.7348 24.7958 16.9695 24.7958C15.6283 24.7958 14.5388 25.2267 13.7011 26.0886C12.8633 26.9506 12.4427 28.078 12.4427 29.4674C12.4427 31.9118 13.639 33.8046 16.0351 35.1423C17.7728 36.1248 19.8965 36.7385 22.3927 37.0074Z" fill="#8976FD"/>
</svg>
